<svg width="22" height="20" viewBox="0 0 22 20" fill="none" xmlns="http://www.w3.org/2000/svg">
<path d="M20.75 15.25H0.75" stroke="black" stroke-width="1.5" stroke-linecap="round" stroke-linejoin="round"/>
<path d="M20.75 18.75V13.75C20.75 11.8644 20.75 10.9216 20.1642 10.3358C19.5784 9.75 18.6356 9.75 16.75 9.75H4.75C2.86438 9.75 1.92157 9.75 1.33579 10.3358C0.75 10.9216 0.75 11.8644 0.75 13.75V18.75" stroke="black" stroke-width="1.5" stroke-linecap="round" stroke-linejoin="round"/>
<path d="M9.75 9.75V7.96336C9.75 7.58272 9.69279 7.45541 9.39975 7.30538C8.78945 6.99292 8.04865 6.75 7.25 6.75C6.45135 6.75 5.71055 6.99292 5.10025 7.30538C4.80721 7.45541 4.75 7.58272 4.75 7.96336L4.75 9.75" stroke="black" stroke-width="1.5" stroke-linecap="round"/>
<path d="M16.75 9.75V7.96336C16.75 7.58272 16.6928 7.45541 16.3997 7.30538C15.7895 6.99292 15.0487 6.75 14.25 6.75C13.4513 6.75 12.7105 6.99292 12.1003 7.30538C11.8072 7.45541 11.75 7.58272 11.75 7.96336L11.75 9.75" stroke="black" stroke-width="1.5" stroke-linecap="round"/>
<path d="M19.75 9.75V5.11057C19.75 4.41893 19.75 4.07311 19.5579 3.74653C19.3657 3.41995 19.092 3.25091 18.5444 2.91283C16.3369 1.54978 13.6493 0.75 10.75 0.75C7.85067 0.75 5.16314 1.54978 2.95558 2.91283C2.40804 3.25091 2.13427 3.41995 1.94213 3.74653C1.75 4.07311 1.75 4.41893 1.75 5.11057V9.75" stroke="black" stroke-width="1.5" stroke-linecap="round"/>
</svg>
