<svg width="24" height="24" viewBox="0 0 24 24" fill="none" xmlns="http://www.w3.org/2000/svg">
<path fill-rule="evenodd" clip-rule="evenodd" d="M9.18336 5.15771C9.39364 4.94743 9.73458 4.94743 9.94486 5.15771L11.3807 6.59361C11.5347 6.74761 11.5808 6.97921 11.4975 7.18042C11.4141 7.38163 11.2178 7.51282 11 7.51282H9.56411C7.08591 7.51282 5.07692 9.5218 5.07692 12C5.07692 14.4782 7.08608 16.4872 9.56431 16.4872H9.92308C10.2205 16.4872 10.4615 16.7283 10.4615 17.0257C10.4615 17.323 10.2205 17.5641 9.92308 17.5641H9.56431C6.49136 17.5641 4 15.073 4 12C4 8.92703 6.49113 6.4359 9.56411 6.4359H9.70005L9.18336 5.91921C8.97308 5.70893 8.97308 5.36799 9.18336 5.15771ZM12.9744 6.97436C12.9744 6.67698 13.2155 6.4359 13.5128 6.4359H13.8718C16.9448 6.4359 19.4359 8.92703 19.4359 12C19.4359 15.073 16.9448 17.5641 13.8718 17.5641H13.7359L14.2525 18.0808C14.4628 18.2911 14.4628 18.632 14.2525 18.8423C14.0422 19.0526 13.7014 19.0526 13.4911 18.8423L12.0552 17.4064C11.9012 17.2524 11.8551 17.0208 11.9384 16.8196C12.0218 16.6184 12.2182 16.4872 12.4359 16.4872H13.8718C16.35 16.4872 18.359 14.4782 18.359 12C18.359 9.5218 16.35 7.51282 13.8718 7.51282H13.5128C13.2155 7.51282 12.9744 7.27174 12.9744 6.97436Z" fill="#035F75"/>
</svg>
